# xmcd
#
# Track frame offsets:
#	150
#	13352
#	30677
#	46753
#	64024
#	89599
#	99725
#	116568
#	132752
#	147571
#	165487
#
# Disc length: 2391 seconds
#
# Revision: 1
# Processed by: cddbd v1.4b42PL1 Copyright (c) Steve Scherf et al.
# Submitted via: audiograbber 1.80.04
#
DISCID=9709550b
DTITLE=John Van Horn and the Fender Benders - I`Ve  Got The Cure
DYEAR=2000
DGENRE=
TTITLE0=Dr. Brown
TTITLE1=All Cried Out
TTITLE2=Savage
TTITLE3=Tossing Stones
TTITLE4=Nothin` I Can Call Mine
TTITLE5=Run Chicken Run
TTITLE6=I Only Hard Fifty Cents
TTITLE7=Eyes Afire
TTITLE8=Love Me
TTITLE9=Roadway Bruiser
TTITLE10=Rumble
EXTD=
EXTT0=
EXTT1=
EXTT2=
EXTT3=
EXTT4=
EXTT5=
EXTT6=
EXTT7=
EXTT8=
EXTT9=
EXTT10=
PLAYORDER=
